<?xml version="1.0" encoding="utf-8"?>
<!-- Generator: Adobe Illustrator 26.0.3, SVG Export Plug-In . SVG Version: 6.00 Build 0)  -->
<svg version="1.1" id="レイヤー_1" xmlns:svg="http://www.w3.org/2000/svg"
	 xmlns="http://www.w3.org/2000/svg" xmlns:xlink="http://www.w3.org/1999/xlink" x="0px" y="0px" viewBox="0 0 1190.52 841.896"
	 style="enable-background:new 0 0 1190.52 841.896;" xml:space="preserve">
<style type="text/css">
	.st0{fill:#00FFFF;}
	.st1{fill:#FF00FF;}
	.st2{fill:none;stroke:#000000;stroke-width:0.0283;stroke-miterlimit:10;}
	.st3{fill:none;stroke:#000000;stroke-width:0.0283;stroke-linecap:round;stroke-linejoin:round;stroke-miterlimit:10;}
	.st4{fill:none;stroke:#0000FF;stroke-width:0.0283;stroke-miterlimit:10;}
	.st5{fill:#FFFF00;}
	.st6{fill:#FF0000;}
</style>
<circle class="st0" cx="502.979" cy="593.859" r="5.953"/>
<circle class="st1" cx="606.444" cy="496.063" r="5.953"/>
<circle class="st0" cx="399.515" cy="496.064" r="5.953"/>
<circle class="st1" cx="531.326" cy="274.961" r="5.953"/>
<circle class="st0" cx="474.633" cy="274.961" r="5.953"/>
<desc>Picture generated by PCBNEW</desc>
<g transform="translate(0 0) scale(1 1)">
</g>
<path class="st2" d="M567.078,448.867l-128.197,0c-7.26,0-13.146-5.885-13.146-13.146l0-128.197c0-7.26,5.885-13.146,13.146-13.146
	l128.197,0c7.26,0,13.146,5.885,13.146,13.146l0,128.197C580.223,442.981,574.338,448.867,567.078,448.867z"/>
<rect x="422.191" y="469.134" class="st2" width="161.575" height="107.717"/>
<circle class="st3" cx="502.979" cy="593.859" r="2.835"/>
<circle class="st3" cx="399.515" cy="496.064" r="2.835"/>
<circle class="st3" cx="606.444" cy="496.063" r="2.835"/>
<circle class="st3" cx="531.326" cy="274.961" r="2.835"/>
<circle class="st3" cx="474.633" cy="274.961" r="2.835"/>
<path class="st4" d="M383.502,501.789c-0.001,0.714-0.005,1.421-0.005,2.14v34.388c0,0.005,0,0.004,0,0.009
	c-0.021,0.15-0.624,12.406,7.912,26.496c25.28,43.526,101.922,42.22,111.578,41.877c9.722,0.344,86.284,1.625,111.557-41.867
	c8.541-14.094,7.939-26.355,7.918-26.505c-0.001-0.005,0-0.004,0-0.009v-34.388c0-0.719-0.003-1.426-0.005-2.141
	c0.056-5.671,0.086-22.187-1.042-44.103c-2.855-60.308-11.216-101.835-20.883-130.338c-4.991-14.975-11.108-28.569-18.609-39.563
	c-0.016-0.024-0.032-0.049-0.049-0.073c-0.012-0.018-0.024-0.036-0.036-0.053c-6.249-9.13-13.455-16.459-21.764-21.283
	c0,0-0.024-0.013-0.068-0.036c-0.738-0.39-7.543-3.898-19-7.025c-8.957-2.445-20.754-4.656-34.735-4.963
	c-1.088-0.024-2.188-0.037-3.301-0.037c-0.716,0-1.403,0.016-2.105,0.023c-0.375,0.004-0.753,0.006-1.124,0.012
	c-13.445,0.227-24.305,1.891-34.841,4.98c-6.26,1.835-12.413,4.165-18.934,7.004c-0.05,0.026-0.08,0.043-0.08,0.043
	c-8.369,4.859-15.617,12.26-21.897,21.482c-7.472,10.972-13.57,24.524-18.547,39.451c-9.673,28.506-18.041,70.046-20.897,130.387
	C383.416,479.607,383.446,496.119,383.502,501.789z"/>
<circle class="st1" cx="834.64" cy="309.551" r="8.787"/>
<circle class="st0" cx="709.916" cy="309.551" r="8.787"/>
<circle class="st1" cx="834.64" cy="434.275" r="8.787"/>
<circle class="st0" cx="709.916" cy="434.275" r="8.787"/>
<circle class="st0" cx="745.349" cy="523.283" r="5.953"/>
<circle class="st5" cx="668.815" cy="496.063" r="5.953"/>
<circle class="st1" cx="772.278" cy="593.858" r="5.953"/>
<circle class="st1" cx="799.207" cy="523.283" r="5.953"/>
<circle class="st6" cx="875.744" cy="496.063" r="5.953"/>
<circle class="st6" cx="800.626" cy="274.961" r="5.953"/>
<circle class="st5" cx="743.933" cy="274.961" r="5.953"/>
<circle class="st3" cx="772.278" cy="593.858" r="2.835"/>
<g>
	<circle class="st2" cx="709.916" cy="309.551" r="4.677"/>
</g>
<g>
	<circle class="st2" cx="709.916" cy="434.275" r="4.677"/>
</g>
<g>
	<circle class="st2" cx="834.64" cy="309.551" r="4.677"/>
</g>
<g>
	<circle class="st2" cx="834.64" cy="434.275" r="4.677"/>
</g>
<circle class="st3" cx="799.207" cy="523.283" r="2.835"/>
<circle class="st3" cx="745.349" cy="523.283" r="2.835"/>
<circle class="st3" cx="668.815" cy="496.063" r="2.835"/>
<circle class="st3" cx="875.744" cy="496.063" r="2.835"/>
<circle class="st3" cx="800.626" cy="274.961" r="2.835"/>
<circle class="st3" cx="743.933" cy="274.961" r="2.835"/>
<path class="st4" d="M652.801,501.789c-0.001,0.714-0.005,1.421-0.005,2.14l0,34.388c0,0.005,0,0.004,0,0.009
	c-0.021,0.15-0.624,12.406,7.912,26.496c25.28,43.526,101.922,42.22,111.578,41.877c9.722,0.344,86.284,1.625,111.557-41.867
	c8.541-14.094,7.939-26.355,7.918-26.505c-0.001-0.005,0-0.004,0-0.009l0-34.388c0-0.719-0.003-1.426-0.005-2.141
	c0.056-5.671,0.086-22.187-1.042-44.103c-2.855-60.308-11.216-101.835-20.883-130.338c-4.991-14.975-11.108-28.569-18.609-39.563
	c-0.016-0.024-0.032-0.049-0.049-0.073c-0.012-0.018-0.024-0.036-0.036-0.053c-6.249-9.13-13.455-16.459-21.764-21.283
	c0,0-0.024-0.013-0.068-0.036c-0.738-0.39-7.543-3.898-19-7.025c-8.957-2.445-20.754-4.656-34.735-4.963
	c-1.088-0.024-2.188-0.037-3.301-0.037c-0.716,0-1.403,0.016-2.105,0.023c-0.375,0.004-0.753,0.006-1.124,0.012
	c-13.445,0.227-24.305,1.891-34.841,4.98c-6.26,1.835-12.413,4.165-18.934,7.004c-0.05,0.026-0.08,0.043-0.08,0.043
	c-8.369,4.859-15.617,12.26-21.898,21.482c-7.472,10.972-13.57,24.524-18.547,39.451c-9.673,28.506-18.041,70.046-20.897,130.387
	C652.715,479.607,652.745,496.119,652.801,501.789z"/>
</svg>
