<?xml version="1.0" encoding="utf-8"?>
<!-- Generator: Adobe Illustrator 26.0.3, SVG Export Plug-In . SVG Version: 6.00 Build 0)  -->
<svg version="1.1" id="レイヤー_1" xmlns:svg="http://www.w3.org/2000/svg"
	 xmlns="http://www.w3.org/2000/svg" xmlns:xlink="http://www.w3.org/1999/xlink" x="0px" y="0px" viewBox="0 0 1190.52 841.896"
	 style="enable-background:new 0 0 1190.52 841.896;" xml:space="preserve">
<style type="text/css">
	.st0{fill:none;stroke:#000000;stroke-width:0.0283;stroke-miterlimit:10;}
	.st1{fill:none;stroke:#0000FF;stroke-width:0.0283;stroke-miterlimit:10;}
</style>
<desc>Picture generated by PCBNEW</desc>
<g transform="translate(0 0) scale(1 1)">
</g>
<polygon class="st0" points="495.781,342.35 501.592,338.995 507.403,342.35 507.403,349.06 501.592,352.415 495.781,349.06 "/>
<polygon class="st0" points="599.244,440.146 605.055,436.791 610.866,440.146 610.866,446.856 605.055,450.211 599.244,446.856 "/>
<polygon class="st0" points="702.71,342.35 708.521,338.995 714.332,342.35 714.332,349.06 708.521,352.415 702.71,349.06 "/>
<path class="st1" d="M721.99,324.736l-31.045,0c-1.255,0-2.273,1.018-2.273,2.273l0.005,98.642c0,3.752-3.042,6.794-6.794,6.794
	h-153.66c-3.75,0-6.789-3.04-6.789-6.789v-98.663c0-1.247-1.011-2.257-2.257-2.257h-31.077c-1.222,0-2.22,0.976-2.254,2.197
	c-0.33,11.965-0.305,20.684-0.267,24.497c-0.001,0.714-0.005,1.421-0.005,2.14v34.388c0,0.005,0,0.004,0,0.009
	c-0.021,0.15-0.624,12.406,7.912,26.496c25.28,43.526,101.922,42.22,111.578,41.877c9.722,0.344,86.284,1.625,111.557-41.867
	c8.541-14.094,7.939-26.355,7.918-26.505c-0.001-0.005,0-0.004,0-0.009v-34.388c0-0.719-0.003-1.426-0.005-2.141
	c0.038-3.811,0.063-12.522-0.266-24.475C724.232,325.722,723.224,324.736,721.99,324.736z"/>
<polygon class="st0" points="849.599,393.937 843.788,397.292 837.977,393.937 837.977,387.227 843.788,383.872 849.599,387.227 "/>
<polygon class="st0" points="746.136,296.141 740.325,299.496 734.514,296.141 734.514,289.431 740.325,286.076 746.136,289.431 "/>
<polygon class="st0" points="642.67,393.937 636.859,397.292 631.048,393.937 631.048,387.227 636.859,383.872 642.67,387.227 "/>
<path class="st1" d="M623.39,411.551l31.046,0c1.255,0,2.273-1.018,2.273-2.273l-0.005-98.642c0-3.752,3.042-6.794,6.794-6.794
	h153.661c3.75,0,6.789,3.04,6.789,6.789v98.663c0,1.247,1.011,2.257,2.257,2.257h31.077c1.222,0,2.22-0.976,2.254-2.197
	c0.33-11.965,0.305-20.684,0.267-24.497c0.001-0.714,0.005-1.421,0.005-2.14v-34.388c0-0.005,0-0.004,0-0.009
	c0.021-0.15,0.624-12.406-7.912-26.496c-25.28-43.526-101.922-42.22-111.578-41.877c-9.722-0.344-86.284-1.625-111.557,41.867
	c-8.541,14.094-7.939,26.355-7.918,26.505c0.001,0.005,0,0.004,0,0.009v34.388c0,0.719,0.003,1.426,0.005,2.141
	c-0.038,3.811-0.063,12.521,0.266,24.475C621.148,410.565,622.156,411.551,623.39,411.551z"/>
<polygon class="st0" points="577.65,393.937 571.839,397.292 566.028,393.937 566.028,387.227 571.839,383.872 577.65,387.227 "/>
<polygon class="st0" points="474.187,296.141 468.376,299.496 462.565,296.141 462.565,289.431 468.376,286.076 474.187,289.431 "/>
<polygon class="st0" points="370.721,393.937 364.91,397.292 359.099,393.937 359.099,387.227 364.91,383.872 370.721,387.227 "/>
<path class="st1" d="M351.441,411.551l31.045,0c1.255,0,2.273-1.018,2.273-2.273l-0.005-98.642c0-3.752,3.042-6.794,6.794-6.794
	h153.661c3.75,0,6.789,3.04,6.789,6.789v98.663c0,1.247,1.011,2.257,2.257,2.257h31.077c1.222,0,2.22-0.976,2.254-2.197
	c0.33-11.965,0.305-20.684,0.267-24.497c0.001-0.714,0.005-1.421,0.005-2.14v-34.388c0-0.005,0-0.004,0-0.009
	c0.021-0.15,0.624-12.406-7.912-26.496c-25.28-43.526-101.922-42.22-111.578-41.877c-9.722-0.344-86.284-1.625-111.557,41.867
	c-8.541,14.094-7.939,26.355-7.918,26.505c0.001,0.005,0,0.004,0,0.009v34.388c0,0.719,0.003,1.426,0.005,2.141
	c-0.038,3.811-0.063,12.521,0.266,24.475C349.199,410.565,350.207,411.551,351.441,411.551z"/>
<polygon class="st0" points="1058.589,349.954 1061.944,355.765 1058.589,361.576 1051.879,361.576 1048.524,355.765 
	1051.879,349.954 "/>
<polygon class="st0" points="1058.589,406.647 1061.944,412.458 1058.589,418.269 1051.879,418.269 1048.524,412.458 
	1051.879,406.647 "/>
<path class="st1" d="M1042.761,454.817V313.402c0-3.366,3.93-5.219,6.522-3.07c6.026,4.997,10.968,10.538,14.537,16.684
	c0,0,0.016,0.03,0.042,0.08c2.839,6.521,5.169,12.674,7.004,18.934c3.088,10.536,4.752,21.396,4.98,34.841
	c0.006,0.371,0.008,0.749,0.012,1.124c0.008,0.702,0.023,1.389,0.023,2.105c0,1.114-0.013,2.214-0.037,3.301
	c-0.307,13.981-2.518,25.778-4.963,34.735c-3.127,11.457-6.635,18.261-7.025,19c-0.024,0.045-0.036,0.068-0.036,0.068
	c-3.569,6.146-8.508,11.687-14.533,16.685C1046.695,460.04,1042.761,458.186,1042.761,454.817z"/>
<polygon class="st0" points="412.076,349.475 415.431,355.286 412.076,361.097 405.366,361.097 402.011,355.286 405.366,349.475 "/>
<polygon class="st0" points="412.076,406.168 415.431,411.979 412.076,417.79 405.366,417.79 402.011,411.979 405.366,406.168 "/>
<path class="st1" d="M396.248,454.338V312.924c0-3.366,3.93-5.219,6.522-3.07c6.026,4.997,10.968,10.538,14.537,16.684
	c0,0,0.016,0.03,0.043,0.08c2.839,6.521,5.169,12.674,7.004,18.934c3.088,10.536,4.752,21.396,4.98,34.841
	c0.006,0.371,0.008,0.749,0.012,1.124c0.008,0.702,0.023,1.389,0.023,2.105c0,1.114-0.013,2.214-0.037,3.301
	c-0.307,13.981-2.518,25.778-4.963,34.735c-3.127,11.457-6.635,18.261-7.025,19c-0.024,0.045-0.036,0.068-0.036,0.068
	c-3.569,6.146-8.508,11.687-14.533,16.685C400.182,459.561,396.248,457.707,396.248,454.338z"/>
<polygon class="st0" points="756.36,342.35 762.171,338.995 767.982,342.35 767.982,349.06 762.171,352.415 756.36,349.06 "/>
<polygon class="st0" points="859.823,440.146 865.634,436.791 871.445,440.146 871.445,446.856 865.634,450.211 859.823,446.856 "/>
<polygon class="st0" points="963.289,342.35 969.1,338.995 974.911,342.35 974.911,349.06 969.1,352.415 963.289,349.06 "/>
<path class="st1" d="M982.569,324.736l-31.045,0c-1.255,0-2.273,1.018-2.273,2.273l0.005,98.642c0,3.752-3.042,6.794-6.794,6.794
	h-153.66c-3.75,0-6.789-3.04-6.789-6.789v-98.663c0-1.247-1.011-2.257-2.257-2.257h-31.077c-1.222,0-2.22,0.976-2.254,2.197
	c-0.33,11.965-0.305,20.684-0.267,24.497c-0.001,0.714-0.005,1.421-0.005,2.14v34.388c0,0.005,0,0.004,0,0.009
	c-0.021,0.15-0.624,12.406,7.912,26.496c25.28,43.526,101.922,42.22,111.578,41.877c9.722,0.344,86.284,1.625,111.557-41.867
	c8.541-14.094,7.939-26.355,7.918-26.505c-0.001-0.005,0-0.004,0-0.009v-34.388c0-0.719-0.003-1.426-0.005-2.141
	c0.038-3.811,0.063-12.522-0.266-24.475C984.812,325.722,983.803,324.736,982.569,324.736z"/>
<polygon class="st0" points="1110.179,393.937 1104.368,397.292 1098.557,393.937 1098.557,387.227 1104.368,383.872 
	1110.179,387.227 "/>
<polygon class="st0" points="1006.715,296.141 1000.904,299.496 995.093,296.141 995.093,289.431 1000.904,286.076 
	1006.715,289.431 "/>
<polygon class="st0" points="903.249,393.937 897.438,397.292 891.627,393.937 891.627,387.227 897.438,383.872 903.249,387.227 "/>
<path class="st1" d="M883.969,411.551l31.045,0c1.255,0,2.273-1.018,2.273-2.273l-0.005-98.642c0-3.752,3.042-6.794,6.794-6.794
	h153.66c3.75,0,6.789,3.04,6.789,6.789l0,98.663c0,1.247,1.01,2.257,2.257,2.257h31.077c1.222,0,2.22-0.976,2.254-2.197
	c0.33-11.965,0.305-20.684,0.267-24.497c0.001-0.714,0.005-1.421,0.005-2.14v-34.388c0-0.005,0-0.004,0-0.009
	c0.021-0.15,0.624-12.406-7.912-26.496c-25.28-43.526-101.922-42.22-111.578-41.877c-9.722-0.344-86.284-1.625-111.557,41.867
	c-8.541,14.094-7.939,26.355-7.918,26.505c0.001,0.005,0,0.004,0,0.009v34.388c0,0.719,0.003,1.426,0.005,2.141
	c-0.038,3.811-0.063,12.521,0.266,24.475C881.727,410.565,882.736,411.551,883.969,411.551z"/>
<polygon class="st0" points="456.73,349.954 460.085,355.765 456.73,361.576 450.02,361.576 446.665,355.765 450.02,349.954 "/>
<polygon class="st0" points="456.73,406.647 460.085,412.458 456.73,418.269 450.02,418.269 446.665,412.458 450.02,406.647 "/>
<path class="st1" d="M440.902,454.817V313.402c0-3.366,3.93-5.219,6.522-3.07c6.026,4.997,10.968,10.538,14.537,16.684
	c0,0,0.016,0.03,0.043,0.08c2.839,6.521,5.169,12.674,7.004,18.934c3.088,10.536,4.752,21.396,4.98,34.841
	c0.006,0.371,0.008,0.749,0.012,1.124c0.008,0.702,0.023,1.389,0.023,2.105c0,1.114-0.013,2.214-0.037,3.301
	c-0.307,13.981-2.518,25.778-4.963,34.735c-3.127,11.457-6.635,18.261-7.025,19c-0.024,0.045-0.036,0.068-0.036,0.068
	c-3.569,6.146-8.508,11.687-14.533,16.685C444.836,460.04,440.902,458.186,440.902,454.817z"/>
<polygon class="st0" points="1016.732,349.475 1020.087,355.286 1016.732,361.097 1010.022,361.097 1006.667,355.286 
	1010.022,349.475 "/>
<polygon class="st0" points="1016.732,406.168 1020.087,411.979 1016.732,417.79 1010.022,417.79 1006.667,411.979 
	1010.022,406.168 "/>
<path class="st1" d="M1000.904,454.338V312.924c0-3.366,3.931-5.219,6.522-3.07c6.026,4.997,10.968,10.538,14.537,16.684
	c0,0,0.016,0.03,0.043,0.08c2.839,6.521,5.169,12.674,7.004,18.934c3.088,10.536,4.752,21.396,4.98,34.841
	c0.006,0.371,0.008,0.749,0.012,1.124c0.008,0.702,0.023,1.389,0.023,2.105c0,1.114-0.013,2.214-0.037,3.301
	c-0.307,13.981-2.518,25.778-4.963,34.735c-3.127,11.457-6.635,18.261-7.025,19c-0.024,0.045-0.036,0.068-0.036,0.068
	c-3.569,6.146-8.508,11.687-14.533,16.685C1004.838,459.561,1000.904,457.707,1000.904,454.338z"/>
<polygon class="st0" points="322.767,349.715 326.122,355.526 322.767,361.337 316.057,361.337 312.702,355.526 316.057,349.715 "/>
<polygon class="st0" points="322.767,406.408 326.122,412.219 322.767,418.03 316.057,418.03 312.702,412.219 316.057,406.408 "/>
<path class="st1" d="M306.94,454.578V313.163c0-3.366,3.931-5.219,6.522-3.07c6.026,4.997,10.968,10.538,14.537,16.684
	c0,0,0.016,0.03,0.043,0.08c2.839,6.521,5.169,12.674,7.004,18.934c3.088,10.536,4.752,21.396,4.98,34.841
	c0.006,0.371,0.008,0.749,0.012,1.124c0.008,0.702,0.023,1.389,0.023,2.105c0,1.114-0.013,2.214-0.037,3.301
	c-0.307,13.981-2.518,25.778-4.963,34.735c-3.127,11.457-6.635,18.261-7.025,19c-0.024,0.045-0.036,0.068-0.036,0.068
	c-3.569,6.146-8.508,11.687-14.533,16.685C310.873,459.801,306.94,457.946,306.94,454.578z"/>
</svg>
