<?xml version="1.0" encoding="utf-8"?>
<!-- Generator: Adobe Illustrator 26.0.3, SVG Export Plug-In . SVG Version: 6.00 Build 0)  -->
<svg version="1.1" id="レイヤー_1" xmlns:svg="http://www.w3.org/2000/svg"
	 xmlns="http://www.w3.org/2000/svg" xmlns:xlink="http://www.w3.org/1999/xlink" x="0px" y="0px" viewBox="0 0 1190.52 841.896"
	 style="enable-background:new 0 0 1190.52 841.896;" xml:space="preserve">
<style type="text/css">
	.st0{fill:none;stroke:#000000;stroke-width:0.0283;stroke-miterlimit:10;}
	.st1{fill:none;stroke:#0000FF;stroke-width:0.0283;stroke-linecap:round;stroke-linejoin:round;stroke-miterlimit:10;}
	.st2{fill:none;stroke:#000000;stroke-width:0.0283;stroke-linecap:round;stroke-linejoin:round;stroke-miterlimit:10;}
</style>
<polygon class="st0" points="631.984,519.637 637.795,516.282 643.606,519.637 643.606,526.347 637.795,529.702 631.984,526.347 "/>
<polygon class="st0" points="578.126,519.637 583.937,516.282 589.748,519.637 589.748,526.347 583.937,529.702 578.126,526.347 "/>
<desc>Picture generated by PCBNEW</desc>
<g transform="translate(0 0) scale(1 1)">
</g>
<path class="st1" d="M654.803,450h-87.874l0.007,18.578l-38.843-0.011V574.55l0.001,0.003c0,3.929,3.194,7.114,7.135,7.114
	l-0.003-0.005h151.27l0.004,0.005c3.941,0,7.135-3.185,7.135-7.114l-0.006-0.003V468.567h-38.828V450"/>
<rect x="537.449" y="476.504" class="st2" width="39.118" height="39.118"/>
<rect x="591.306" y="476.504" class="st2" width="39.118" height="39.118"/>
<rect x="645.165" y="476.504" class="st2" width="39.118" height="39.118"/>
<rect x="645.165" y="530.362" class="st2" width="39.118" height="39.118"/>
<rect x="591.306" y="530.362" class="st2" width="39.118" height="39.118"/>
<rect x="537.449" y="530.362" class="st2" width="39.118" height="39.118"/>
</svg>
