<?xml version="1.0" encoding="utf-8"?>
<!-- Generator: Adobe Illustrator 26.0.3, SVG Export Plug-In . SVG Version: 6.00 Build 0)  -->
<svg version="1.1" id="レイヤー_1" xmlns:svg="http://www.w3.org/2000/svg"
	 xmlns="http://www.w3.org/2000/svg" xmlns:xlink="http://www.w3.org/1999/xlink" x="0px" y="0px" viewBox="0 0 1190.52 841.896"
	 style="enable-background:new 0 0 1190.52 841.896;" xml:space="preserve">
<style type="text/css">
	.st0{fill:none;stroke:#000000;stroke-width:0.0283;stroke-linecap:round;stroke-linejoin:round;stroke-miterlimit:10;}
	.st1{fill:none;stroke:#0000FF;stroke-width:0.0283;stroke-linecap:round;stroke-linejoin:round;stroke-miterlimit:10;}
	.st2{fill:none;stroke:#000000;stroke-width:0.0283;stroke-miterlimit:10;}
	.st3{fill-rule:evenodd;clip-rule:evenodd;fill:none;stroke:#000000;stroke-width:0.0283;stroke-miterlimit:10;}
</style>
<desc>Picture generated by PCBNEW</desc>
<g transform="translate(0 0) scale(1 1)">
</g>
<circle class="st0" cx="535.748" cy="571.181" r="2.835"/>
<circle class="st0" cx="685.984" cy="571.181" r="2.835"/>
<circle class="st0" cx="685.984" cy="474.803" r="2.835"/>
<circle class="st0" cx="535.748" cy="474.803" r="2.835"/>
<path class="st0" d="M555.3,439.646v-15.588h-15.588v-45.072H555.3v-75.398v-7.942h102.902v21.834h10.782
	c1.561,0,2.827,1.266,2.827,2.827V422.79c0,1.564-1.268,2.832-2.832,2.832h-10.776v17.43H555.3V439.646z"/>
<path class="st1" d="M673.651,288.565H548.074l0.001,0.004c-11.034,0-19.979,8.918-19.979,19.919l-0.001-0.003v200.911
	c0,0.464,0.376,0.84,0.84,0.84h7.812c1.249,0,2.262,1.013,2.262,2.262v21.266c0,1.096-0.888,1.984-1.984,1.984h-8.08
	c-0.47,0-0.851,0.381-0.851,0.851v37.952l0.001,0.003c0,3.929,3.194,7.114,7.135,7.114l-0.003-0.005h35.111
	c0.466,0,0.843-0.378,0.843-0.843v-8.09c0-1.09,0.883-1.973,1.973-1.973h21.542c1.102,0,1.996,0.894,1.996,1.996v8.062
	c0,0.469,0.38,0.849,0.849,0.849h26.639c0.474,0,0.858-0.384,0.858-0.858v-8.076c0-1.089,0.883-1.972,1.972-1.972h21.557
	c1.095,0,1.983,0.888,1.983,1.983v8.062c0,0.476,0.386,0.862,0.862,0.862h35.084l0.004,0.005c3.941,0,7.135-3.185,7.135-7.114
	l-0.006-0.003v-37.951c0-0.47-0.381-0.851-0.851-0.851h-8.071c-1.096,0-1.984-0.888-1.984-1.984v-21.538
	c0-1.099,0.891-1.99,1.99-1.99h8.071c0.467,0,0.845-0.379,0.845-0.845V308.485l0.006,0.003c0-11.001-8.945-19.919-19.979-19.919"/>
<g>
	<circle class="st2" cx="555.874" cy="459.212" r="1.843"/>
</g>
<g>
	<circle class="st2" cx="536.031" cy="459.212" r="1.843"/>
</g>
<g>
	<circle class="st2" cx="548.504" cy="309.26" r="4.677"/>
</g>
<g>
	<circle class="st2" cx="548.504" cy="433.984" r="4.677"/>
</g>
<g>
	<circle class="st2" cx="549.638" cy="361.542" r="2.268"/>
</g>
<g>
	<circle class="st2" cx="543.969" cy="361.542" r="2.268"/>
</g>
<g>
	<circle class="st2" cx="673.228" cy="309.26" r="4.677"/>
</g>
<g>
	<circle class="st2" cx="673.228" cy="433.984" r="4.677"/>
</g>
<g>
	<circle class="st2" cx="665.858" cy="459.212" r="1.843"/>
</g>
<g>
	<circle class="st2" cx="685.701" cy="459.212" r="1.843"/>
</g>
<path class="st0" d="M682.016,467.715c1.096,0,1.984-0.888,1.984-1.984s-0.888-1.984-1.984-1.984l-0.003-0.003h-1.699l0.001,0.003
	c-1.096,0-1.984,0.888-1.984,1.984s0.888,1.984,1.984,1.984l-0.001-0.004h1.699"/>
<path class="st0" d="M673.512,467.715c1.096,0,1.984-0.888,1.984-1.984s-0.888-1.984-1.984-1.984l-0.002-0.003h-1.699l0.001,0.003
	c-1.096,0-1.984,0.888-1.984,1.984s0.888,1.984,1.984,1.984l-0.001-0.004h1.699"/>
<path class="st0" d="M662.174,467.715c1.096,0,1.984-0.888,1.984-1.984s-0.888-1.984-1.984-1.984l0,0l-0.004-0.003h-1.699
	l0.002,0.003c-1.096,0-1.984,0.888-1.984,1.984s0.888,1.984,1.984,1.984l-0.002-0.004h1.699"/>
<path class="st0" d="M659.027,454.676c1.096,0,1.984-0.888,1.984-1.984s-0.888-1.984-1.984-1.984l-0.004-0.003h-1.699l0.002,0.003
	c-1.096,0-1.984,0.888-1.984,1.984s0.888,1.984,1.984,1.984l-0.002-0.004h1.699"/>
<path class="st0" d="M564.378,467.715c1.096,0,1.984-0.888,1.984-1.984s-0.888-1.984-1.984-1.984l-0.006-0.003h-1.699l0.004,0.003
	c-1.096,0-1.984,0.888-1.984,1.984s0.888,1.984,1.984,1.984l-0.004-0.004h1.699"/>
<path class="st0" d="M541.418,454.676c1.096,0,1.984-0.888,1.984-1.984s-0.888-1.984-1.984-1.984l0,0l-0.006-0.003h-1.699
	l0.004,0.003c-1.096,0-1.984,0.888-1.984,1.984s0.888,1.984,1.984,1.984l-0.004-0.004h1.699"/>
<path class="st0" d="M549.922,454.676c1.096,0,1.984-0.888,1.984-1.984s-0.888-1.984-1.984-1.984l-0.007-0.003h-1.699l0.005,0.003
	c-1.096,0-1.984,0.888-1.984,1.984s0.888,1.984,1.984,1.984l-0.005-0.004h1.699"/>
<path class="st0" d="M561.255,454.672h-1.699l0.004,0.004c-1.096,0-1.984-0.888-1.984-1.984s0.888-1.984,1.984-1.984l-0.004-0.003
	h1.699l0.006,0.003c1.096,0,1.984,0.888,1.984,1.984s-0.888,1.984-1.984,1.984"/>
<circle class="st0" cx="585.667" cy="469.133" r="2.126"/>
<circle class="st0" cx="592.867" cy="469.133" r="2.126"/>
<circle class="st0" cx="600.067" cy="469.133" r="2.126"/>
<circle class="st0" cx="607.267" cy="469.133" r="2.126"/>
<circle class="st0" cx="614.467" cy="469.133" r="2.126"/>
<circle class="st0" cx="621.667" cy="469.133" r="2.126"/>
<circle class="st0" cx="628.867" cy="469.133" r="2.126"/>
<circle class="st0" cx="636.067" cy="469.133" r="2.126"/>
<circle class="st0" cx="637.795" cy="522.992" r="2.835"/>
<circle class="st0" cx="583.937" cy="522.992" r="2.835"/>
<circle class="st0" cx="542.41" cy="507.203" r="3.118"/>
<circle class="st0" cx="549.808" cy="510.463" r="3.118"/>
<circle class="st0" cx="557.008" cy="512.788" r="3.118"/>
<circle class="st0" cx="567.808" cy="503.263" r="3.118"/>
<circle class="st0" cx="557.008" cy="496.063" r="5.669"/>
<path class="st0" d="M573.131,498.897c1.271,0,2.302-1.268,2.302-2.833c0-1.564-1.031-2.833-2.302-2.833l-0.007-0.004h-1.971
	l0.005,0.004c-1.271,0-2.302,1.268-2.302,2.833c0,1.564,1.031,2.833,2.302,2.833l-0.005-0.006h1.971"/>
<path class="st0" d="M542.858,498.897c1.271,0,2.302-1.268,2.302-2.833c0-1.564-1.031-2.833-2.302-2.833l-0.007-0.004h-1.971
	l0.005,0.004c-1.271,0-2.302,1.268-2.302,2.833c0,1.564,1.031,2.833,2.302,2.833l-0.005-0.006h1.971"/>
<circle class="st0" cx="596.267" cy="507.203" r="3.118"/>
<circle class="st0" cx="603.665" cy="510.463" r="3.118"/>
<circle class="st0" cx="610.865" cy="512.788" r="3.118"/>
<circle class="st0" cx="621.665" cy="503.263" r="3.118"/>
<circle class="st0" cx="610.865" cy="496.063" r="5.669"/>
<path class="st0" d="M626.989,498.897c1.271,0,2.302-1.268,2.302-2.833c0-1.564-1.031-2.833-2.302-2.833l-0.007-0.004h-1.971
	l0.005,0.004c-1.271,0-2.302,1.268-2.302,2.833c0,1.564,1.031,2.833,2.302,2.833l-0.005-0.006h1.971"/>
<path class="st0" d="M596.715,498.897c1.271,0,2.302-1.268,2.302-2.833c0-1.564-1.031-2.833-2.302-2.833l-0.007-0.004h-1.971
	l0.005,0.004c-1.271,0-2.302,1.268-2.302,2.833c0,1.564,1.031,2.833,2.302,2.833l-0.005-0.006h1.971"/>
<circle class="st0" cx="650.126" cy="507.203" r="3.118"/>
<circle class="st0" cx="657.524" cy="510.463" r="3.118"/>
<circle class="st0" cx="664.724" cy="512.788" r="3.118"/>
<circle class="st0" cx="675.524" cy="503.263" r="3.118"/>
<circle class="st0" cx="664.724" cy="496.063" r="5.669"/>
<path class="st0" d="M680.847,498.897c1.271,0,2.302-1.268,2.302-2.833c0-1.564-1.031-2.833-2.302-2.833l-0.007-0.004h-1.971
	l0.005,0.004c-1.271,0-2.302,1.268-2.302,2.833c0,1.564,1.031,2.833,2.302,2.833l-0.005-0.006h1.971"/>
<path class="st0" d="M650.573,498.897c1.271,0,2.302-1.268,2.302-2.833c0-1.564-1.031-2.833-2.302-2.833l-0.007-0.004h-1.971
	l0.005,0.004c-1.271,0-2.302,1.268-2.302,2.833c0,1.564,1.031,2.833,2.302,2.833l-0.005-0.006h1.971"/>
<circle class="st0" cx="650.126" cy="561.061" r="3.118"/>
<circle class="st0" cx="657.524" cy="564.321" r="3.118"/>
<circle class="st0" cx="664.724" cy="566.646" r="3.118"/>
<circle class="st0" cx="675.524" cy="557.121" r="3.118"/>
<circle class="st0" cx="664.724" cy="549.921" r="5.669"/>
<path class="st0" d="M680.847,552.756c1.271,0,2.302-1.268,2.302-2.833c0-1.564-1.031-2.833-2.302-2.833l-0.007-0.004h-1.971
	l0.005,0.004c-1.271,0-2.302,1.268-2.302,2.833c0,1.564,1.031,2.833,2.302,2.833l-0.005-0.006h1.971"/>
<path class="st0" d="M650.573,552.756c1.271,0,2.302-1.268,2.302-2.833c0-1.564-1.031-2.833-2.302-2.833l-0.007-0.004h-1.971
	l0.005,0.004c-1.271,0-2.302,1.268-2.302,2.833c0,1.564,1.031,2.833,2.302,2.833l-0.005-0.006h1.971"/>
<circle class="st0" cx="596.267" cy="561.061" r="3.118"/>
<circle class="st0" cx="603.665" cy="564.321" r="3.118"/>
<circle class="st0" cx="610.865" cy="566.646" r="3.118"/>
<circle class="st0" cx="621.665" cy="557.121" r="3.118"/>
<circle class="st0" cx="610.865" cy="549.921" r="5.669"/>
<path class="st0" d="M626.989,552.756c1.271,0,2.302-1.268,2.302-2.833c0-1.564-1.031-2.833-2.302-2.833l-0.007-0.004h-1.971
	l0.005,0.004c-1.271,0-2.302,1.268-2.302,2.833c0,1.564,1.031,2.833,2.302,2.833l-0.005-0.006h1.971"/>
<path class="st0" d="M596.715,552.756c1.271,0,2.302-1.268,2.302-2.833c0-1.564-1.031-2.833-2.302-2.833l-0.007-0.004h-1.971
	l0.005,0.004c-1.271,0-2.302,1.268-2.302,2.833c0,1.564,1.031,2.833,2.302,2.833l-0.005-0.006h1.971"/>
<circle class="st0" cx="542.409" cy="561.061" r="3.118"/>
<circle class="st0" cx="549.807" cy="564.321" r="3.118"/>
<circle class="st0" cx="557.007" cy="566.646" r="3.118"/>
<circle class="st0" cx="567.807" cy="557.121" r="3.118"/>
<circle class="st0" cx="557.007" cy="549.921" r="5.669"/>
<path class="st0" d="M573.131,552.756c1.271,0,2.302-1.268,2.302-2.833c0-1.564-1.031-2.833-2.302-2.833l-0.007-0.004h-1.971
	l0.005,0.004c-1.271,0-2.302,1.268-2.302,2.833c0,1.564,1.031,2.833,2.302,2.833l-0.005-0.006h1.971"/>
<path class="st0" d="M542.857,552.756c1.271,0,2.302-1.268,2.302-2.833c0-1.564-1.031-2.833-2.302-2.833l-0.007-0.004h-1.971
	l0.005,0.004c-1.271,0-2.302,1.268-2.302,2.833c0,1.564,1.031,2.833,2.302,2.833l-0.005-0.006h1.971"/>
<path class="st3" d="M567.711,487.701h-21.406c-1.134,0-2.053-0.919-2.053-2.053v-5.815c0-1.134,0.919-2.053,2.053-2.053h21.406
	c1.134,0,2.053,0.919,2.053,2.053v5.815C569.764,486.782,568.845,487.701,567.711,487.701z"/>
<path class="st3" d="M621.569,487.701h-21.406c-1.134,0-2.053-0.919-2.053-2.053v-5.815c0-1.134,0.919-2.053,2.053-2.053h21.406
	c1.134,0,2.053,0.919,2.053,2.053v5.815C623.622,486.782,622.703,487.701,621.569,487.701z"/>
<path class="st3" d="M675.427,487.701h-21.406c-1.134,0-2.053-0.919-2.053-2.053v-5.815c0-1.134,0.919-2.053,2.053-2.053h21.406
	c1.134,0,2.053,0.919,2.053,2.053v5.815C677.479,486.782,676.56,487.701,675.427,487.701z"/>
<path class="st3" d="M675.427,541.559h-21.406c-1.134,0-2.053-0.919-2.053-2.053v-5.815c0-1.134,0.919-2.053,2.053-2.053h21.406
	c1.134,0,2.053,0.919,2.053,2.053v5.815C677.48,540.64,676.561,541.559,675.427,541.559z"/>
<path class="st3" d="M621.568,541.559h-21.406c-1.134,0-2.053-0.919-2.053-2.053v-5.815c0-1.134,0.919-2.053,2.053-2.053h21.406
	c1.134,0,2.053,0.919,2.053,2.053v5.815C623.621,540.64,622.702,541.559,621.568,541.559z"/>
<path class="st3" d="M567.711,541.559h-21.406c-1.134,0-2.053-0.919-2.053-2.053v-5.815c0-1.134,0.919-2.053,2.053-2.053h21.406
	c1.134,0,2.053,0.919,2.053,2.053v5.815C569.764,540.64,568.845,541.559,567.711,541.559z"/>
<path class="st3" d="M580.206,471.829h-8.65c-1.134,0-2.053-0.919-2.053-2.053v-17.158c0-1.134,0.919-2.053,2.053-2.053h8.65
	c1.134,0,2.053,0.919,2.053,2.053v17.158C582.259,470.91,581.34,471.829,580.206,471.829z"/>
<path class="st3" d="M642.12,565.992h-8.65c-1.134,0-2.053-0.919-2.053-2.053v-11.965c0-1.134,0.919-2.053,2.053-2.053h8.65
	c1.134,0,2.053,0.919,2.053,2.053v11.965C644.173,565.073,643.254,565.992,642.12,565.992z"/>
</svg>
